<?xml version="1.0" standalone="no"?>
<!DOCTYPE svg PUBLIC "-//W3C//DTD SVG 20010904//EN"
 "http://www.w3.org/TR/2001/REC-SVG-20010904/DTD/svg10.dtd">
<svg version="1.0" xmlns="http://www.w3.org/2000/svg"
 width="1000.000000pt" height="700.000000pt" viewBox="0 0 1000.000000 700.000000"
 preserveAspectRatio="xMidYMid meet">

<g transform="translate(0.000000,700.000000) scale(0.100000,-0.100000)"
fill="#000000" stroke="none">
<path d="M5041 6323 c-67 -208 -152 -469 -189 -580 l-67 -203 -608 0 c-378 0
-606 -4 -602 -9 3 -6 224 -168 490 -361 267 -194 485 -353 485 -355 0 -1 -51
-159 -114 -351 -223 -684 -258 -795 -253 -800 3 -3 205 140 449 317 243 177
464 337 489 355 l47 34 493 -359 c272 -197 496 -357 497 -355 2 1 -73 238
-166 526 -200 613 -207 637 -201 641 2 2 224 163 492 358 l489 354 -610 3
-610 2 -10 28 c-11 27 -37 106 -253 772 -61 190 -114 348 -118 353 -4 4 -62
-163 -130 -370z"/>
<path d="M1965 4119 c-2 -8 -87 -268 -188 -579 l-183 -565 -611 -5 -610 -5 91
-66 c50 -36 272 -197 493 -357 l401 -292 -48 -147 c-27 -82 -105 -323 -175
-538 -70 -214 -133 -408 -140 -430 -7 -22 -11 -42 -9 -44 1 -2 224 157 494
354 270 196 494 355 499 353 4 -2 227 -162 495 -357 268 -194 489 -352 491
-350 2 2 -26 94 -62 204 -36 110 -121 370 -188 578 l-123 379 92 67 c50 37
271 197 490 356 l399 290 -608 5 -609 5 -88 270 c-48 149 -131 405 -184 570
-53 165 -100 304 -105 309 -5 6 -10 4 -14 -5z"/>
<path d="M8115 4119 c-2 -8 -87 -268 -188 -579 l-183 -565 -611 -5 -610 -5 91
-66 c50 -36 272 -197 493 -357 l401 -292 -48 -147 c-27 -82 -105 -323 -175
-538 -70 -214 -133 -408 -140 -430 -7 -22 -11 -42 -9 -44 1 -2 224 157 494
354 270 196 494 355 499 353 4 -2 227 -162 495 -357 268 -194 489 -352 491
-350 2 2 -26 94 -62 204 -36 110 -121 370 -188 578 l-123 379 92 67 c50 37
271 197 490 356 l399 290 -608 5 -609 5 -88 270 c-48 149 -131 405 -184 570
-53 165 -100 304 -105 309 -5 6 -10 4 -14 -5z"/>
</g>
</svg>
